<svg width="786" height="232" viewBox="0 0 786 232" xmlns="http://www.w3.org/2000/svg">
  <style>
    .card-bg  { fill: #161B22; stroke: #30363D; stroke-width: 1; }
    .title    { font-family: 'Segoe UI', -apple-system, BlinkMacSystemFont, sans-serif; font-size: 15px; font-weight: 600; fill: #F0F6FC; }
    .subtitle { font-family: 'Segoe UI', -apple-system, BlinkMacSystemFont, sans-serif; font-size: 11.5px; fill: #8B949E; }
    .tag      { font-family: 'SFMono-Regular', Consolas, 'Liberation Mono', Menlo, monospace; font-size: 10.5px; fill: #8B949E; }
    .label    { font-family: 'SFMono-Regular', Consolas, 'Liberation Mono', Menlo, monospace; font-size: 12px; fill: #F0F6FC; }
    .small    { font-family: 'SFMono-Regular', Consolas, 'Liberation Mono', Menlo, monospace; font-size: 11px; fill: #8B949E; }
    
  </style>
  
  <rect x="24" y="24" width="230" height="184" rx="10" class="card-bg" />
  <rect x="24" y="24" width="230" height="44" rx="10" fill="#7EE787" fill-opacity="0.12" />
  <text x="42" y="52" class="title" fill="#7EE787" style="fill:#7EE787">2026</text>
  <path d="M 42 88 l 4 4 l 7 -8" stroke="#7EE787" stroke-width="2" fill="none" stroke-linecap="round" stroke-linejoin="round" />
  <text x="58" y="92" class="small" style="fill:#F0F6FC">AI Security Fundamentals</text>
  <path d="M 42 114 l 4 4 l 7 -8" stroke="#7EE787" stroke-width="2" fill="none" stroke-linecap="round" stroke-linejoin="round" />
  <text x="58" y="118" class="small" style="fill:#F0F6FC">Cloud Security Labs</text>
  <path d="M 42 140 l 4 4 l 7 -8" stroke="#7EE787" stroke-width="2" fill="none" stroke-linecap="round" stroke-linejoin="round" />
  <text x="58" y="144" class="small" style="fill:#F0F6FC">Networking</text>
  <path d="M 42 166 l 4 4 l 7 -8" stroke="#7EE787" stroke-width="2" fill="none" stroke-linecap="round" stroke-linejoin="round" />
  <text x="58" y="170" class="small" style="fill:#F0F6FC">Independent Thesis Research</text>
  <rect x="39" y="187" width="10" height="10" rx="2" fill="none" stroke="#8B949E" stroke-width="1.4" />
  <text x="58" y="196" class="small" style="fill:#8B949E">arXiv Preprint</text>
  <rect x="278" y="24" width="230" height="184" rx="10" class="card-bg" />
  <rect x="278" y="24" width="230" height="44" rx="10" fill="#58A6FF" fill-opacity="0.12" />
  <text x="296" y="52" class="title" fill="#58A6FF" style="fill:#58A6FF">2027</text>
  <rect x="293" y="83" width="10" height="10" rx="2" fill="none" stroke="#8B949E" stroke-width="1.4" />
  <text x="312" y="92" class="small" style="fill:#8B949E">IEEE Access Submission</text>
  <rect x="293" y="109" width="10" height="10" rx="2" fill="none" stroke="#8B949E" stroke-width="1.4" />
  <text x="312" y="118" class="small" style="fill:#8B949E">Open Source Security Tool</text>
  <rect x="293" y="135" width="10" height="10" rx="2" fill="none" stroke="#8B949E" stroke-width="1.4" />
  <text x="312" y="144" class="small" style="fill:#8B949E">Hackathon Participation</text>
  <rect x="293" y="161" width="10" height="10" rx="2" fill="none" stroke="#8B949E" stroke-width="1.4" />
  <text x="312" y="170" class="small" style="fill:#8B949E">Graduate (BSCS)</text>
  <rect x="293" y="187" width="10" height="10" rx="2" fill="none" stroke="#8B949E" stroke-width="1.4" />
  <text x="312" y="196" class="small" style="fill:#8B949E">PhD Applications</text>
  <rect x="532" y="24" width="230" height="184" rx="10" class="card-bg" />
  <rect x="532" y="24" width="230" height="44" rx="10" fill="#BC8CFF" fill-opacity="0.12" />
  <text x="550" y="52" class="title" fill="#BC8CFF" style="fill:#BC8CFF">Beyond</text>
  <rect x="547" y="83" width="10" height="10" rx="2" fill="none" stroke="#8B949E" stroke-width="1.4" />
  <text x="566" y="92" class="small" style="fill:#8B949E">PhD — AI Security</text>
  <rect x="547" y="109" width="10" height="10" rx="2" fill="none" stroke="#8B949E" stroke-width="1.4" />
  <text x="566" y="118" class="small" style="fill:#8B949E">Published Research</text>
  <rect x="547" y="135" width="10" height="10" rx="2" fill="none" stroke="#8B949E" stroke-width="1.4" />
  <text x="566" y="144" class="small" style="fill:#8B949E">Research Community Contributions</text>
</svg>